<?xml version="1.0" encoding="utf-8"?>
<!-- Generator: Adobe Illustrator 16.0.0, SVG Export Plug-In . SVG Version: 6.00 Build 0)  -->
<!DOCTYPE svg PUBLIC "-//W3C//DTD SVG 1.1//EN" "http://www.w3.org/Graphics/SVG/1.1/DTD/svg11.dtd">
<svg version="1.1" id="Layer_1" xmlns="http://www.w3.org/2000/svg" xmlns:xlink="http://www.w3.org/1999/xlink" x="0px" y="0px"
	 width="35.515px" height="48.348px" viewBox="0 0 35.515 48.348" enable-background="new 0 0 35.515 48.348" xml:space="preserve">
<path fill="#231F20" d="M28.035,45.978c0,0,2.229-12.982-2.676-15.991c-4.904-3.009,7.579-9.343,9.362-4.009s0,20,0,20
	S32.047,51.311,28.035,45.978z"/>
<path fill="#F7BE0D" stroke="#231F20" stroke-miterlimit="10" d="M4.518,15.829c0,0-6.001-3.082-3.334,4.918
	c0,0,4,8.999,12.667,8.666c0,0,10.485-5.741,10.485-2.083c0,0,3.515-4.583,8.515-3.25c0,0-1.667-6.671-8-5.502
	C21.518,18.08,4.518,15.829,4.518,15.829z"/>
<path fill="#C0529E" stroke="#231F20" stroke-miterlimit="10" d="M21.518,18.08v-5.667l-4-6.333h2l-3.667-5.333L13.184,3.08
	c0,0-7,2.666-7,8.333s0,6.667,0,6.667H21.518z"/>
<path fill="#231F20" stroke="#231F20" stroke-miterlimit="10" d="M23.518,13.08h-20c0,0,2.457,14.093,10,3.637l2.632,0.112
	C16.149,16.829,22.114,26.262,23.518,13.08z"/>
<path fill="none" stroke="#231F20" stroke-miterlimit="10" d="M13.851,29.413c0,0-7.667-2.825-7.667-7.079"/>
</svg>
